<?xml version="1.0" standalone="no"?>
<!DOCTYPE svg PUBLIC "-//W3C//DTD SVG 20010904//EN" "http://www.w3.org/TR/2001/REC-SVG-20010904/DTD/svg10.dtd">
<svg xmlns="http://www.w3.org/2000/svg" version="1.0" width="1280.000000pt" height="1280.000000pt" viewBox="0 0 1280.000000 1280.000000" preserveAspectRatio="xMidYMid meet">
<metadata>
Created by potrace 1.16, written by Peter Selinger 2001-2019
<meta name="Producer" content="Online-Convert"/></metadata>
<g transform="translate(0.000000,1280.000000) scale(0.100000,-0.100000)" fill="#000000" stroke="none">
<path d="M0 6400 l0 -6400 6400 0 6400 0 0 6400 0 6400 -6400 0 -6400 0 0 -6400z m8002 1598 c50 -15 120 -76 144 -125 10 -22 20 -72 23 -118 l6 -80 175 0 c157 0 178 -2 208 -20 20 -12 210 -250 506 -635 261 -338 487 -627 502 -642 33 -31 73 -48 113 -48 94 0 204 -72 245 -160 20 -42 21 -65 24 -370 3 -307 4 -325 23 -338 44 -31 62 -115 38 -179 -15 -42 -68 -92 -109 -103 -19 -5 -76 -10 -127 -10 l-91 0 -41 -85 c-47 -96 -119 -176 -192 -212 l-44 -23 383 0 382 0 0 -35 0 -35 -3697 2 -3698 3 0 30 0 30 1560 5 c1532 5 1559 5 1526 24 -66 36 -142 118 -177 191 -19 38 -34 77 -34 87 0 16 -22 17 -277 20 -275 3 -278 3 -312 27 -64 46 -61 -20 -61 1210 0 767 3 1129 11 1148 14 38 57 83 96 99 26 11 149 14 660 14 345 0 921 3 1278 7 l650 6 -3 69 c-3 59 0 78 23 124 52 107 170 157 287 122z m-355 -28 l-11 -30 -678 0 -678 0 0 30 0 30 689 0 689 0 -11 -30z m-57 -150 l0 -30 -420 0 -420 0 0 30 0 30 420 0 420 0 0 -30z m-2677 -240 c-3 -10 -11 -24 -18 -30 -8 -7 -154 -9 -441 -8 l-429 3 -3 28 -3 27 449 0 c443 0 450 0 445 -20z m-20 -196 c2 -14 0 -28 -7 -30 -6 -2 -148 -3 -315 -2 l-304 3 -4 28 -4 27 314 0 315 0 5 -26z m-1 -199 c3 -13 3 -27 0 -30 -3 -3 -383 -5 -844 -5 l-838 0 0 30 0 30 839 0 839 0 4 -25z m0 -170 c3 -3 3 -17 0 -30 l-4 -25 -304 0 -304 0 0 30 0 30 303 0 c167 0 306 -2 309 -5z m8 -225 l0 -30 -595 0 -595 0 0 30 0 30 595 0 595 0 0 -30z m-7 -196 c2 -14 0 -28 -7 -30 -6 -2 -130 -3 -276 -2 l-265 3 -3 28 -3 27 274 0 275 0 5 -26z m5 -196 l3 -28 -1135 0 -1136 0 0 23 c0 13 3 27 7 30 3 4 513 6 1132 5 l1126 -3 3 -27z m2 -198 l0 -30 -350 0 -350 0 0 30 0 30 350 0 350 0 0 -30z m-8 -195 c3 -13 3 -27 0 -30 -3 -3 -338 -5 -744 -5 l-738 0 0 30 0 30 739 0 739 0 4 -25z m0 -170 c3 -3 3 -17 0 -30 l-4 -25 -274 0 -274 0 0 30 0 30 273 0 c151 0 276 -2 279 -5z m8 -228 l0 -24 -407 -6 c-223 -4 -473 -7 -555 -7 l-148 0 0 30 0 30 555 0 555 0 0 -23z m-2 -194 l-3 -28 -307 -3 -308 -2 0 30 0 30 311 0 310 0 -3 -27z m14 -190 c8 -10 18 -24 22 -30 6 -10 -160 -13 -813 -13 l-821 0 0 30 0 30 798 0 c748 0 800 -1 814 -17z m676 -175 c5 -7 13 -23 16 -35 l7 -23 -615 0 -616 0 0 35 0 35 599 0 c467 0 601 -3 609 -12z"/>
<path d="M7852 7919 c-62 -31 -92 -87 -92 -172 l0 -67 170 0 170 0 0 60 c0 71 -16 114 -56 152 -56 52 -122 61 -192 27z"/>
<path d="M5132 7593 c-64 -31 -62 -8 -62 -703 l0 -630 835 0 835 0 0 -80 0 -80 -835 0 -835 0 0 -290 0 -290 31 0 c79 0 169 -53 195 -116 8 -19 14 -63 14 -99 l0 -65 165 0 165 0 0 53 c0 174 102 333 266 414 73 35 84 38 185 41 90 4 118 1 173 -18 182 -60 313 -237 317 -426 l2 -64 1073 0 1074 0 1 48 c2 206 150 394 352 448 61 16 173 18 236 3 202 -46 361 -246 361 -453 l0 -44 43 -3 c23 -2 52 -3 65 -1 22 3 23 6 16 58 -9 78 1 119 42 158 l34 33 -2 304 -3 304 -237 3 -238 2 0 80 0 80 123 1 c72 0 112 4 97 8 -85 26 -95 37 -337 356 -428 563 -740 960 -763 972 -20 10 -369 13 -1690 13 -1518 0 -1668 -2 -1698 -17z m312 -129 c21 -20 30 -58 22 -88 -12 -49 -29 -56 -142 -56 -123 0 -144 12 -144 80 0 68 21 80 144 80 82 0 108 -3 120 -16z m550 -270 c3 -9 6 -49 6 -89 l0 -74 88 -3 87 -3 0 -115 0 -115 -87 -3 -88 -3 0 -74 c0 -110 5 -105 -120 -105 -76 0 -111 4 -117 13 -4 6 -8 46 -8 87 l0 75 -90 5 -90 5 0 115 0 115 90 5 90 5 2 74 c1 41 4 80 7 88 4 10 33 13 115 13 90 0 110 -3 115 -16z m2586 -117 c-8 -7 -65 -59 -126 -115 -61 -56 -114 -102 -118 -102 -3 0 -6 21 -6 48 1 46 2 48 78 115 74 65 78 67 131 67 46 0 53 -2 41 -13z m279 -201 l22 -23 -202 -187 -203 -186 -50 0 c-50 0 -50 0 -31 20 50 50 431 399 436 399 3 1 15 -10 28 -23z m-1567 -682 c1 -36 -1 -72 -5 -80 -7 -11 -53 -14 -262 -14 l-255 0 0 80 0 80 259 0 259 0 4 -66z m798 -14 l0 -80 -267 2 -268 3 -3 78 -3 77 271 0 270 0 0 -80z m1280 0 l0 -80 -625 0 -625 0 0 80 0 80 625 0 625 0 0 -80z m379 -176 c28 -36 27 -79 -4 -109 -22 -23 -31 -25 -125 -25 -87 0 -103 3 -120 20 -27 27 -27 89 0 118 19 20 31 22 125 22 100 0 104 -1 124 -26z"/>
<path d="M6016 5679 c-106 -25 -221 -116 -271 -214 -77 -154 -48 -347 70 -467 207 -210 541 -150 668 120 28 60 32 77 32 157 0 108 -20 173 -75 246 -99 132 -267 195 -424 158z m231 -125 c104 -50 167 -151 167 -269 0 -120 -63 -218 -172 -272 -76 -37 -181 -39 -258 -5 -176 79 -234 305 -118 459 84 111 251 149 381 87z"/>
<path d="M6040 5508 c-35 -10 -93 -48 -118 -78 -28 -32 -52 -97 -52 -139 -1 -182 179 -295 345 -217 60 28 87 56 114 116 42 92 23 182 -53 256 -70 68 -145 88 -236 62z"/>
<path d="M9100 5675 c-116 -33 -211 -113 -263 -223 -30 -62 -32 -75 -32 -172 0 -97 2 -110 32 -173 78 -163 257 -259 430 -230 137 24 248 107 306 231 27 57 33 81 35 157 4 103 -15 169 -72 252 -91 133 -281 201 -436 158z m246 -123 c51 -26 109 -83 137 -135 18 -34 22 -58 22 -132 0 -81 -3 -95 -30 -144 -56 -101 -147 -154 -265 -155 -99 -1 -163 27 -229 99 -192 211 -13 532 275 494 28 -4 68 -16 90 -27z"/>
<path d="M9155 5511 c-184 -45 -248 -270 -114 -398 46 -44 97 -63 166 -63 137 1 238 101 237 235 -1 106 -65 190 -168 220 -53 16 -74 17 -121 6z"/>
<path d="M6568 5143 c-53 -132 -127 -226 -213 -271 l-40 -21 1345 0 1345 0 -40 21 c-98 51 -167 131 -207 240 l-21 58 -1079 0 -1078 0 -12 -27z m2120 -95 c5 -7 13 -23 16 -36 l7 -22 -548 2 c-519 3 -548 4 -551 21 -10 49 -29 47 536 47 412 0 532 -3 540 -12z"/>
</g>
</svg>
